# xmcd
#
# Track frame offsets:
#	182
#	4002
#	12732
#	18055
#	22702
#	34062
#	41025
#	51517
#	58680
#	63160
#	73640
#	84502
#	91925
#	95275
#	106282
#	115525
#	122560
#	125147
#	137340
#	147702
#	160682
#	167677
#	175915
#	185652
#	195950
#	206525
#	215050
#	224977
#	234897
#	247742
#	252195
#
# Disc length: 3426 seconds
#
# Revision: 0
# Processed by: cddbd v1.5.2PL0 Copyright (c) Steve Scherf et al.
# Submitted via: EZCDAudioConverter 2.1.3.1
#
DISCID=aa0d601f
DTITLE=Various Artist - COUNTRY RADIO SHOWS, VOL. 1
DYEAR=1996
DGENRE=Country
TTITLE0=FARON YOUNG - INTRODUCTION
TTITLE1=PATSY CLINE SHOW, COUNTRY HOEDOWN - COME ON IN (AND MAKE YOURSELF AT H
TTITLE1=OME)
TTITLE2=PATSY CLINE SHOW, COUNTRY HOEDOWN - TURN THE CARDS SLOWLY
TTITLE3=PATSY CLINE SHOW, COUNTRY HOEDOWN - TALK
TTITLE4=FARON YOUNG - YOU'RE STILL MINE
TTITLE5=FARON YOUNG - TALK - NAVY ADVERTISEMENT
TTITLE6=PATSY CLINE SHOW, COUNTRY HOEDOWN - YES, I UNDERSTAND
TTITLE7=PATSY CLINE SHOW, COUNTRY HOEDOWN - CLOSING - MUSICAL THEME
TTITLE8=JIMMY DEAN - INTRODUCTION
TTITLE9=EDDY ARNOLD SHOW, COUNTRY HOEDOWN - A GOOD LOOKIN' BLONDE
TTITLE10=JUDY LYNN, COUNTRY HOEDOWN - TIPTOE
TTITLE11=EDDY ARNOLD SHOW, COUNTRY HOEDOWN - YOU WERE MINE FOR AWHILE
TTITLE12=EDDY ARNOLD SHOW, COUNTRY HOEDOWN - TALK and NAVY NURSE CORPS ADVERTISE
TTITLE12=MENT
TTITLE13=JUDY LYNN, COUNTRY HOEDOWN - WON'T YOU RIDE IN MY LITTLE RED WAGON
TTITLE14=EDDY ARNOLD SHOW, COUNTRY HOEDOWN - THAT DO MAKE IT NICE
TTITLE15=EDDY ARNOLD SHOW, COUNTRY HOEDOWN - CLOSING - MUSICAL THEME
TTITLE16=T. TOMMY CUTRER - INTRODUCTION
TTITLE17=FARON YOUNG SHOW feat. COUNTRY DEPUTY BAND - YOU DON'T KNOW ME
TTITLE18=FARON YOUNG SHOW feat. COUNTRY DEPUTY BAND - A SATISFIED MIND
TTITLE19=FARON YOUNG SHOW feat. COUNTRY DEPUTY BAND - LOVE ME TENDER
TTITLE20=FARON YOUNG SHOW feat. COUNTRY DEPUTY BAND - BLUE BLUE DAY
TTITLE21=FARON YOUNG SHOW feat. COUNTRY DEPUTY BAND - TIGER BY THE TAIL
TTITLE22=FARON YOUNG SHOW feat. COUNTRY DEPUTY BAND - HELLO WALLS
TTITLE23=FARON YOUNG SHOW feat. COUNTRY DEPUTY BAND - HERE COMES MY BABY BACK 
TTITLE23=AGAIN
TTITLE24=FARON YOUNG SHOW feat. COUNTRY DEPUTY BAND - ONCE A DAY
TTITLE25=FARON YOUNG SHOW feat. COUNTRY DEPUTY BAND - COMPANY'S COMIN'
TTITLE26=FARON YOUNG SHOW feat. COUNTRY DEPUTY BAND - SAWMILL
TTITLE27=FARON YOUNG SHOW feat. COUNTRY DEPUTY BAND - ACCORDING TO MY HEART
TTITLE28=FARON YOUNG SHOW feat. COUNTRY DEPUTY BAND - MAKE THE WORLD GO AWAY
TTITLE29=FARON YOUNG SHOW feat. COUNTRY DEPUTY BAND - PEARL BEER ADVERTISMENT
TTITLE30=FARON YOUNG SHOW - SIGN OFF FROM FARON
EXTD=
EXTT0=
EXTT1=
EXTT2=
EXTT3=
EXTT4=
EXTT5=
EXTT6=
EXTT7=
EXTT8=
EXTT9=
EXTT10=
EXTT11=
EXTT12=
EXTT13=
EXTT14=
EXTT15=
EXTT16=
EXTT17=
EXTT18=
EXTT19=
EXTT20=
EXTT21=
EXTT22=
EXTT23=
EXTT24=
EXTT25=
EXTT26=
EXTT27=
EXTT28=
EXTT29=
EXTT30=
PLAYORDER=
